:SAMPLES-PER-SECOND 30
:FULLY-SPECIFIED
:DEGREES
749
root  -3.81047 38.7539 16.2987 -4.39424 58.7441 1.13025
RightUpLeg  -13.8795 -16.432 3.23553
RightLeg  14.8503 -19.9287 0.258085
RightFoot  1.62772 1.59449 -13.8685
RightToes  -2.21189e-009 0 -3.6325e-017
Spine  6.22018 -2.58933 6.70348
Spine1  9.22863 -2.50658 0.0835625
HEad  -9.84503 -7.84246 -3.81621
LeftShoulder1  -0.067701 3.69452 -29.3558
LeftArm  -3.9349 12.4658 -40.253
LeftForeArm  17.2121 -23.9707 -4.27719
LeftHand  -0.0775693 2.11927 2.4313
RightShoulder  -0.430391 -4.82111 25.7618
RightArm  10.4273 -3.21818 47.4896
RightForeArm  1.4521 9.95233 6.19392
RightHand  -0.742594 6.31002 -7.69596
LeftUpLeg  16.7015 12.935 -1.65283
LeftLeg  16.496 1.06577 0.378405
LeftFoot  -16.8893 0.0152683 -1.83129
LeftToes  -4.03379e-008 1.61488e-010 -5.81581e-011
750
root  -2.82768 38.8325 16.7123 -4.59975 56.9496 -0.448547
RightUpLeg  -13.9018 -13.884 4.05732
RightLeg  15.8982 -20.5584 -0.450123
RightFoot  0.391424 1.34278 -12.9606
RightToes  -2.21189e-009 0 -3.6325e-017
Spine  5.0799 -2.46553 8.09548
Spine1  8.49419 -2.42374 0.9702
HEad  -9.00176 -8.0937 -3.96415
LeftShoulder1  -0.116908 3.83323 -29.3305
LeftArm  -3.06027 12.9462 -41.6305
LeftForeArm  16.4281 -20.6733 -4.22108
LeftHand  -0.0645319 3.04488 2.4181
RightShoulder  -0.415212 -4.78406 25.4995
RightArm  9.44158 -3.07303 47.1533
RightForeArm  1.79943 8.3991 6.014
RightHand  -0.645869 5.30393 -7.27845
LeftUpLeg  13.4996 15.3923 0.25256
LeftLeg  23.7474 -1.65239 -0.443801
LeftFoot  -14.0942 -0.064933 -6.85011
LeftToes  -4.03379e-008 1.61488e-010 -5.81581e-011
751
root  -2.01504 38.8842 17.0875 -4.89998 56.1661 -0.921997
RightUpLeg  -12.9075 -11.119 3.70501
RightLeg  16.9646 -22.3873 -1.09098
RightFoot  -1.07608 1.0525 -11.7538
RightToes  -2.21189e-009 0 -3.6325e-017
Spine  6.16155 -2.87684 7.97209
Spine1  6.75958 -2.86898 2.55059
HEad  -9.53827 -8.092 -2.68886
LeftShoulder1  -0.0373648 3.61118 -28.4869
LeftArm  -3.08533 13.8469 -42.9321
LeftForeArm  17.59 -17.9611 -4.87561
LeftHand  -0.0312751 3.41982 0.776566
RightShoulder  -0.39924 -4.73795 25.3932
RightArm  8.21875 -3.80442 47.046
RightForeArm  2.88314 8.95232 5.45855
RightHand  -0.514918 4.74662 -6.17744
LeftUpLeg  9.50013 16.1744 1.66405
LeftLeg  33.067 -3.55335 -2.13976
LeftFoot  -8.06914 0.373129 -11.3713
LeftToes  -4.03379e-008 1.61488e-010 -5.81581e-011
752
root  -1.18949 38.939 17.4171 -5.71509 54.922 -2.1748
RightUpLeg  -11.6463 -9.02729 4.00086
RightLeg  17.017 -23.2813 -1.15863
RightFoot  -2.08575 0.866749 -10.8312
RightToes  -2.21189e-009 0 -3.6325e-017
Spine  6.36813 -3.09017 9.11588
Spine1  6.13628 -2.93721 3.06918
HEad  -10.5605 -7.76267 -1.4511
LeftShoulder1  0.08335 3.26206 -28.2654
LeftArm  -2.32252 14.0199 -43.2173
LeftForeArm  20.1059 -16.465 -5.48528
LeftHand  -0.00793944 3.72896 -0.906874
RightShoulder  -0.392123 -4.72371 25.1737
RightArm  8.7249 -4.71843 46.8418
RightForeArm  -0.358172 11.252 5.45346
RightHand  -0.671173 4.77941 -7.94424
LeftUpLeg  4.57928 16.4315 3.09005
LeftLeg  42.3823 -4.15984 -3.65912
LeftFoot  0.463385 1.25472 -12.3437
LeftToes  -4.03379e-008 1.61488e-010 -5.81581e-011
753
root  -0.389045 38.9224 17.703 -6.44243 52.8152 -3.28168
RightUpLeg  -10.807 -8.496 4.65782
RightLeg  17.629 -21.7507 -1.2264
RightFoot  -3.33822 0.682014 -10.0445
RightToes  -2.21189e-009 0 -3.6325e-017
Spine  6.30872 -3.12244 10.781
Spine1  6.31751 -2.63516 2.71613
HEad  -11.4132 -8.46326 -1.19109
LeftShoulder1  0.0736388 3.29249 -28.7074
LeftArm  -1.00019 13.582 -42.6367
LeftForeArm  23.3368 -16.1661 -5.75418
LeftHand  -0.00631808 4.28389 -2.00776
RightShoulder  -0.38799 -4.71674 24.9986
RightArm  10.2198 -4.33679 46.8975
RightForeArm  -1.27889 13.073 5.51433
RightHand  -0.642775 4.8427 -7.56955
LeftUpLeg  0.203382 17.0182 4.43369
LeftLeg  49.8749 -3.66103 -4.19545
LeftFoot  6.16106 1.70223 -11.245
LeftToes  -4.03379e-008 1.61488e-010 -5.81581e-011
754
root  0.405921 38.9797 17.9676 -6.36708 49.7822 -2.95282
RightUpLeg  -9.51415 -8.51782 4.55338
RightLeg  17.9239 -18.7969 -1.0272
RightFoot  -4.26251 0.571763 -9.67347
RightToes  -2.21189e-009 0 -3.6325e-017
Spine  6.61188 -2.92769 11.5428
Spine1  6.53721 -2.0728 1.88881
HEad  -12.9483 -7.84865 0.0246385
LeftShoulder1  0.0217252 3.44166 -28.8304
LeftArm  -0.547054 13.6687 -42.4644
LeftForeArm  24.6751 -16.3427 -5.71378
LeftHand  -0.00247419 4.42293 -2.8719
RightShoulder  -0.449405 -4.89487 25.4309
RightArm  12.8207 -2.70163 46.8469
RightForeArm  -2.82353 14.3016 5.83274
RightHand  -0.744285 5.6376 -8.14049
LeftUpLeg  -2.87978 18.029 5.21744
LeftLeg  54.9641 -2.65586 -3.59496
LeftFoot  4.38855 1.47406 -10.8297
LeftToes  -4.03379e-008 1.61488e-010 -5.81581e-011
755
root  1.21589 39.0684 18.2178 -6.28284 46.1297 -2.40051
RightUpLeg  -7.84747 -8.4413 4.21104
RightLeg  17.6726 -15.2864 -0.604899
RightFoot  -5.00915 0.479415 -9.25576
RightToes  -2.21189e-009 0 -3.6325e-017
Spine  7.10421 -2.78879 11.7389
Spine1  6.55334 -1.70293 1.38155
HEad  -12.5855 -6.46893 -0.426735
LeftShoulder1  -0.0309003 3.5919 -29.0242
LeftArm  -0.965371 14.5225 -42.3873
LeftForeArm  23.2508 -16.4324 -5.63184
LeftHand  0.0102513 3.87885 -2.5391
RightShoulder  -0.383979 -4.69783 25.1638
RightArm  14.7629 -1.54123 47.8267
RightForeArm  -2.12741 15.8397 5.71376
RightHand  -0.72491 5.10988 -8.29443
LeftUpLeg  -5.31394 18.7395 5.97045
LeftLeg  57.602 -1.89077 -2.70164
LeftFoot  3.22059 1.13954 -9.06109
LeftToes  -4.03379e-008 1.61488e-010 -5.81581e-011
756
root  2.00879 39.1574 18.4284 -5.79114 42.5442 -1.97229
RightUpLeg  -6.85399 -8.25719 3.8606
RightLeg  17.368 -11.8445 -0.318793
RightFoot  -5.35076 0.429235 -8.85639
RightToes  -2.21189e-009 0 -3.6325e-017
Spine  7.02781 -2.55994 11.9323
Spine1  6.43617 -1.38503 1.1157
HEad  -12.6132 -5.60055 -0.846421
LeftShoulder1  -0.00650728 3.52205 -29.4261
LeftArm  -2.27492 15.0359 -42.2613
LeftForeArm  22.3452 -15.6687 -5.78653
LeftHand  -0.0108936 4.22171 -1.44632
RightShoulder  -0.363097 -4.64666 24.7478
RightArm  17.1601 -0.871012 48.6048
RightForeArm  -2.22348 18.1182 5.39317
RightHand  -0.660935 5.08071 -7.62394
LeftUpLeg  -8.08943 18.4003 6.45379
LeftLeg  58.1044 -1.1801 -1.52969
LeftFoot  1.81189 0.865352 -7.58943
LeftToes  -4.03379e-008 1.61488e-010 -5.81581e-011
757
root  2.80613 39.2569 18.6171 -5.18175 39.037 -1.41113
RightUpLeg  -5.96138 -8.0624 3.17426
RightLeg  16.9983 -8.27621 -0.0222985
RightFoot  -5.79998 0.345685 -7.93917
RightToes  -2.21189e-009 0 -3.6325e-017
Spine  6.97008 -2.36411 11.8619
Spine1  6.25354 -1.1741 0.865253
HEad  -12.8903 -4.836 -0.912121
LeftShoulder1  -0.00847677 3.52755 -29.6712
LeftArm  -3.48731 15.0302 -42.2989
LeftForeArm  21.8294 -14.627 -6.03494
LeftHand  -0.0216245 4.15415 -0.0618541
RightShoulder  -0.429466 -4.85587 24.8321
RightArm  18.8432 -0.492079 48.7109
RightForeArm  -4.00001 20.7946 5.1365
RightHand  -0.664763 5.83652 -7.17912
LeftUpLeg  -10.3295 16.6099 6.58733
LeftLeg  56.4159 -0.623928 -0.520118
LeftFoot  -0.173657 0.638848 -6.52647
LeftToes  -4.03379e-008 1.61488e-010 -5.81581e-011
758
root  3.60025 39.3676 18.7597 -4.40945 35.3679 -0.717102
RightUpLeg  -5.26594 -8.27614 2.07094
RightLeg  16.4671 -4.41255 0.626735
RightFoot  -5.85297 0.329074 -7.67354
RightToes  -2.21189e-009 0 -3.6325e-017
Spine  7.03859 -2.23098 11.5743
Spine1  5.84036 -1.06249 0.639463
HEad  -12.6393 -4.20358 -1.20653
LeftShoulder1  0.00476792 3.49045 -29.7544
LeftArm  -3.90564 15.3492 -42.2849
LeftForeArm  21.8259 -14.3937 -6.04579
LeftHand  -0.0227721 4.40848 -0.132326
RightShoulder  -0.340303 -4.57862 24.553
RightArm  18.3537 -0.842425 49.0578
RightForeArm  -4.14745 23.5954 5.24574
RightHand  -0.609035 5.84994 -6.60275
LeftUpLeg  -11.8377 13.7707 6.58662
LeftLeg  52.5168 -0.0996228 0.312941
LeftFoot  -1.75514 0.491824 -5.73955
LeftToes  -4.03379e-008 1.61488e-010 -5.81581e-011
759
root  4.39176 39.4588 18.8906 -3.71346 31.5109 -0.21759
RightUpLeg  -4.91241 -8.37258 1.05099
RightLeg  16.1552 -0.499255 1.18476
RightFoot  -5.87849 0.31285 -7.368
RightToes  -2.21189e-009 0 -3.6325e-017
Spine  7.02293 -1.99321 11.5227
Spine1  5.68152 -0.797483 0.113713
HEad  -13.0904 -2.6396 -2.09786
LeftShoulder1  0.00969694 3.47651 -29.4144
LeftArm  -3.52799 15.146 -42.4633
LeftForeArm  22.0136 -14.2791 -6.17942
LeftHand  -0.024329 4.43165 -0.00639463
RightShoulder  -0.486454 -5.02301 25.2011
RightArm  17.9155 -0.626943 48.4986
RightForeArm  -2.78621 26.36 5.80718
RightHand  -0.599164 5.876 -6.49095
LeftUpLeg  -12.5517 10.4622 7.12522
LeftLeg  47.0076 0.107121 0.54369
LeftFoot  -3.2104 0.389348 -5.20991
LeftToes  -4.03379e-008 1.61488e-010 -5.81581e-011
760
root  5.18129 39.5178 19.0097 -3.3687 27.3146 -0.13501
RightUpLeg  -4.54102 -8.21034 0.312805
RightLeg  15.7481 3.71725 1.73478
RightFoot  -6.02332 0.270743 -6.69857
RightToes  -2.21189e-009 0 -3.6325e-017
Spine  7.30816 -1.75701 11.2131
Spine1  5.24269 -0.699967 0.299255
HEad  -13.6975 -2.51808 -2.21629
LeftShoulder1  -0.0196324 3.55883 -29.6257
LeftArm  -2.14021 15.2346 -42.0534
LeftForeArm  21.4517 -14.8367 -6.21916
LeftHand  -0.029198 4.54395 -0.433076
RightShoulder  -0.483628 -5.01673 25.1254
RightArm  17.8213 -0.769293 48.3814
RightForeArm  -1.70711 28.4751 6.25406
RightHand  -0.683942 5.70912 -7.45604
LeftUpLeg  -12.2972 6.45015 8.31442
LeftLeg  40.027 -0.205841 0.173619
LeftFoot  -4.23975 0.33359 -4.97476
LeftToes  -4.03379e-008 1.61488e-010 -5.81581e-011
761
root  5.98214 39.5782 19.1157 -3.12575 23.0604 -0.365417
RightUpLeg  -4.10319 -7.99325 -0.277683
RightLeg  14.9288 7.91708 2.30036
RightFoot  -5.75352 0.260038 -6.11428
RightToes  -2.21189e-009 0 -3.6325e-017
Spine  7.1135 -1.60972 11.3993
Spine1  5.62703 -0.587032 -0.0991105
HEad  -14.1954 -2.31027 -2.19639
LeftShoulder1  -0.0199441 3.5594 -29.4732
LeftArm  -2.04082 15.2163 -42.2271
LeftForeArm  21.768 -15.2447 -6.03809
LeftHand  -0.0262606 4.10686 -1.00606
RightShoulder  -0.515175 -5.11564 25.1545
RightArm  18.9507 0.148961 48.3929
RightForeArm  -2.38572 28.921 6.40012
RightHand  -0.767739 6.32859 -7.92031
LeftUpLeg  -11.3612 0.672962 9.94044
LeftLeg  32.011 -0.975791 -0.292018
LeftFoot  -5.30149 0.284486 -4.7693
LeftToes  -4.03379e-008 1.61488e-010 -5.81581e-011
